<svg width="21" height="23" viewBox="0 0 21 23" fill="none" xmlns="http://www.w3.org/2000/svg">
<path d="M10.3864 14.5867C6.73115 14.5867 3.48053 16.3517 1.41101 19.0906C0.965596 19.68 0.742888 19.9748 0.750173 20.3731C0.755801 20.6809 0.949057 21.0691 1.19121 21.2591C1.50463 21.5051 1.93897 21.5051 2.80764 21.5051H17.9653C18.8339 21.5051 19.2683 21.5051 19.5817 21.2591C19.8238 21.0691 20.0171 20.6809 20.0227 20.3731C20.03 19.9748 19.8073 19.68 19.3619 19.0906C17.2924 16.3517 14.0417 14.5867 10.3864 14.5867Z" stroke="white" stroke-opacity="0.4" stroke-width="1.5" stroke-linecap="round" stroke-linejoin="round"/>
<path d="M10.3864 11.1276C13.2521 11.1276 15.5752 8.80446 15.5752 5.93878C15.5752 3.07309 13.2521 0.75 10.3864 0.75C7.52077 0.75 5.19767 3.07309 5.19767 5.93878C5.19767 8.80446 7.52077 11.1276 10.3864 11.1276Z" stroke="white" stroke-opacity="0.4" stroke-width="1.5" stroke-linecap="round" stroke-linejoin="round"/>
</svg>
