<svg width="28" height="28" viewBox="0 0 28 28" fill="none" xmlns="http://www.w3.org/2000/svg">
<path fill-rule="evenodd" clip-rule="evenodd" d="M4.03666 15.8974V15.6449C4.0737 14.8979 4.31313 14.174 4.73026 13.548C5.42457 12.7961 5.89986 11.8746 6.10627 10.8803C6.10627 10.1118 6.10627 9.33233 6.1734 8.56385C6.5202 4.86412 10.1784 2.30615 13.7918 2.30615H13.8813C17.4948 2.30615 21.1529 4.86412 21.5109 8.56385C21.5781 9.33233 21.5109 10.1118 21.5669 10.8803C21.7761 11.8769 22.2509 12.8013 22.9429 13.559C23.3631 14.1795 23.6029 14.9007 23.6365 15.6449V15.8864C23.6615 16.8901 23.3158 17.8688 22.6632 18.642C21.8009 19.5461 20.6307 20.1086 19.3742 20.2229C15.6897 20.6182 11.9723 20.6182 8.28776 20.2229C7.03268 20.1036 5.86418 19.542 4.99875 18.642C4.35626 17.8682 4.01523 16.8954 4.03666 15.8974Z" stroke="white" stroke-opacity="0.4" stroke-width="1.5" stroke-linecap="round" stroke-linejoin="round"/>
<path d="M11.0174 24.0435C11.5931 24.766 12.4385 25.2337 13.3665 25.3429C14.2945 25.4521 15.2286 25.1939 15.9621 24.6253C16.1877 24.4572 16.3907 24.2617 16.5662 24.0435" stroke="white" stroke-opacity="0.4" stroke-width="1.5" stroke-linecap="round" stroke-linejoin="round"/>
</svg>
